<?xml version="1.0" encoding="UTF-8"?><svg xmlns="http://www.w3.org/2000/svg" xmlns:xlink="http://www.w3.org/1999/xlink" width="262.5" zoomAndPan="magnify" viewBox="0 0 262.5 187.499995" height="187.499995" preserveAspectRatio="xMidYMid meet" version="1.0"><defs><clipPath id="clip-0"><path d="M 0.101562 0 L 261.902344 0 L 261.902344 177.613281 L 0.101562 177.613281 Z M 0.101562 0 " clip-rule="nonzero"/></clipPath></defs><path fill="rgb(100%, 72.938538%, 25.099182%)" d="M 145.304688 172.003906 C 125.863281 172.003906 106.960938 165.074219 92.058594 152.496094 L 85.519531 146.976562 L 145.304688 146.976562 C 146.164062 146.976562 146.867188 146.273438 146.867188 145.410156 C 146.867188 144.550781 146.164062 143.84375 145.304688 143.84375 L 83.21875 143.84375 L 82.28125 142.746094 C 77.265625 136.839844 73.105469 130.277344 69.917969 123.238281 L 67.917969 118.820312 L 173.398438 118.820312 C 174.261719 118.820312 174.964844 118.113281 174.964844 117.253906 C 174.964844 116.390625 174.261719 115.6875 173.398438 115.6875 L 66.890625 115.6875 L 66.207031 113.480469 C 63.785156 105.59375 62.554688 97.390625 62.554688 89.09375 C 62.554688 43.382812 99.675781 6.199219 145.304688 6.199219 C 164.742188 6.199219 183.648438 13.125 198.550781 25.707031 L 205.089844 31.226562 L 145.304688 31.226562 C 144.445312 31.226562 143.742188 31.929688 143.742188 32.792969 C 143.742188 33.652344 144.445312 34.355469 145.304688 34.355469 L 207.382812 34.355469 L 208.320312 35.457031 C 221.046875 50.433594 228.050781 69.488281 228.050781 89.101562 C 228.050781 134.816406 190.929688 172.003906 145.304688 172.003906 Z M 145.304688 172.003906 " fill-opacity="1" fill-rule="nonzero"/><g clip-path="url(#clip-0)"><path fill="rgb(100%, 100%, 100%)" d="M 65.675781 173.566406 C 65.675781 176.160156 63.578125 178.257812 60.992188 178.257812 L 32.890625 178.257812 C 30.304688 178.257812 28.207031 176.160156 28.207031 173.566406 C 28.207031 170.976562 30.304688 168.878906 32.890625 168.878906 L 60.992188 168.878906 C 63.578125 168.875 65.675781 170.976562 65.675781 173.566406 Z M 262.398438 32.804688 C 262.398438 35.394531 260.304688 37.492188 257.71875 37.492188 L 217.800781 37.492188 C 228.171875 52.074219 234.296875 69.878906 234.296875 89.105469 C 234.296875 138.265625 194.375 178.257812 145.304688 178.257812 C 119.769531 178.257812 96.734375 167.417969 80.488281 150.105469 L 4.78125 150.105469 C 2.195312 150.105469 0.101562 148.007812 0.101562 145.417969 C 0.101562 142.824219 2.195312 140.726562 4.78125 140.726562 L 72.808594 140.726562 C 68.695312 134.941406 65.253906 128.644531 62.59375 121.957031 L 32.890625 121.957031 C 30.304688 121.957031 28.207031 119.855469 28.207031 117.265625 C 28.207031 114.671875 30.304688 112.574219 32.890625 112.574219 L 59.457031 112.574219 C 57.417969 105.09375 56.308594 97.234375 56.308594 89.113281 C 56.308594 39.949219 96.226562 -0.046875 145.304688 -0.046875 C 170.835938 -0.046875 193.875 10.792969 210.121094 28.105469 L 257.722656 28.105469 C 260.304688 28.105469 262.398438 30.210938 262.398438 32.804688 Z M 205.941406 37.492188 L 145.304688 37.492188 C 142.71875 37.492188 140.621094 35.394531 140.621094 32.804688 C 140.621094 30.210938 142.71875 28.113281 145.304688 28.113281 L 196.539062 28.113281 C 182.679688 16.410156 164.804688 9.34375 145.304688 9.34375 C 101.398438 9.34375 65.675781 45.125 65.675781 89.113281 C 65.675781 97.273438 66.910156 105.152344 69.195312 112.574219 L 173.40625 112.574219 C 175.992188 112.574219 178.089844 114.671875 178.089844 117.265625 C 178.089844 119.855469 175.992188 121.957031 173.40625 121.957031 L 72.769531 121.957031 C 75.859375 128.773438 79.875 135.085938 84.664062 140.726562 L 145.304688 140.726562 C 147.890625 140.726562 149.988281 142.824219 149.988281 145.417969 C 149.988281 148.007812 147.890625 150.105469 145.304688 150.105469 L 94.070312 150.105469 C 107.925781 161.808594 125.800781 168.875 145.304688 168.875 C 189.207031 168.875 224.933594 133.09375 224.933594 89.105469 C 224.925781 69.4375 217.769531 51.414062 205.941406 37.492188 Z M 257.71875 -0.046875 L 229.617188 -0.046875 C 227.03125 -0.046875 224.933594 2.054688 224.933594 4.644531 C 224.933594 7.234375 227.03125 9.335938 229.617188 9.335938 L 257.71875 9.335938 C 260.304688 9.335938 262.398438 7.234375 262.398438 4.644531 C 262.398438 2.054688 260.304688 -0.046875 257.71875 -0.046875 Z M 257.71875 -0.046875 " fill-opacity="1" fill-rule="nonzero"/></g></svg>